<svg width="133" height="171" viewBox="0 0 133 171" fill="none" xmlns="http://www.w3.org/2000/svg">
<path d="M86.3906 68.0273H25.489C46.5276 87.0425 24.6234 102.492 24.6234 102.492H87.2564C87.2561 102.492 65.3522 87.0425 86.3906 68.0273Z" fill="#DCD8D6"/>
<path d="M105.661 128.039H7.25027C7.20588 128.491 7.1795 128.952 7.1795 129.413C7.1795 133.231 8.72969 136.695 11.2366 139.201C13.7524 141.7 17.2073 143.25 21.0254 143.25H91.9037C99.5398 143.25 105.732 137.057 105.732 129.413C105.733 128.952 105.706 128.491 105.661 128.039Z" fill="#DCD8D6"/>
<path d="M105.661 128.039H7.25027C7.20588 128.491 7.1795 128.952 7.1795 129.413C7.1795 133.231 8.72969 136.695 11.2366 139.201C13.7524 141.7 17.2073 143.25 21.0254 143.25H91.9037C99.5398 143.25 105.732 137.057 105.732 129.413C105.733 128.952 105.706 128.491 105.661 128.039Z" fill="#E3A588"/>
<path d="M18.5992 31.2978L48.3726 68.0303H64.4686L94.3935 31.2978H18.5992Z" fill="#DCD8D6"/>
<path d="M96.7942 46.9329C96.3542 46.0046 95.4196 45.4137 94.3931 45.4137H18.5361C17.5097 45.4137 16.575 46.0046 16.1351 46.9319C15.6951 47.8592 15.8286 48.9571 16.4775 49.7522L32.7775 69.711C33.2822 70.3295 34.038 70.6877 34.8361 70.6877H78.0844C78.8819 70.6877 79.6376 70.3295 80.1424 69.712L96.451 49.7532C97.1003 48.9581 97.2341 47.8602 96.7942 46.9329ZM76.824 65.3726H36.0969L24.1377 50.7289H88.7892L76.824 65.3726Z" fill="#EA8C00"/>
<path d="M106.606 121.947C105.435 119.638 103.715 117.612 101.629 116.085L81.5106 101.411C81.1344 101.141 80.7466 100.832 80.3587 100.492C79.8737 100.068 79.2514 99.8332 78.6065 99.8332H34.3227C33.6875 99.8332 33.0726 100.061 32.591 100.475C32.167 100.839 31.7808 101.146 31.3919 101.424L11.3003 116.085C7.05594 119.182 4.52203 124.164 4.52203 129.412C4.52203 133.818 6.23912 137.962 9.36453 141.087C12.4943 144.195 16.6358 145.907 21.0256 145.907H91.9043C100.995 145.907 108.39 138.508 108.39 129.412C108.39 126.821 107.772 124.239 106.606 121.947ZM91.9043 140.592H21.0256C18.0488 140.592 15.2372 139.428 13.1162 137.322C11.0018 135.207 9.8372 132.398 9.8372 129.412C9.8372 125.856 11.5553 122.479 14.4337 120.379L34.5073 105.731C34.761 105.549 35.0174 105.356 35.2791 105.148H77.6439C77.8982 105.351 78.1509 105.542 78.3962 105.718L98.4939 120.377C99.9056 121.41 101.071 122.784 101.867 124.354C102.657 125.907 103.075 127.656 103.075 129.412C103.075 135.577 98.0637 140.592 91.9043 140.592Z" fill="#EA8C00"/>
<path d="M88.7876 100.32C88.7045 100.261 80.4565 94.3491 79.9418 85.8304C79.6227 80.5496 82.3919 75.2235 88.1724 69.9991C88.9876 69.262 89.2653 68.0984 88.8704 67.0723C88.4755 66.0462 87.4898 65.3699 86.3902 65.3699H25.4886C24.3891 65.3699 23.4034 66.0465 23.0085 67.0723C22.6136 68.0981 22.8913 69.2617 23.7065 69.9991C29.4756 75.2131 32.2452 80.5293 31.9394 85.7994C31.4467 94.2757 23.1704 100.264 23.0916 100.32C22.1453 100.987 21.74 102.192 22.0902 103.295C22.44 104.399 23.4648 105.149 24.6231 105.149H87.2558C88.4141 105.149 89.4389 104.399 89.7887 103.295C90.1395 102.192 89.7343 100.987 88.7876 100.32ZM31.2755 99.8342C34.015 96.6073 36.8954 91.9037 37.2429 86.1515C37.5633 80.8457 35.6974 75.6621 31.6864 70.6854H80.1928C76.1818 75.6624 74.3159 80.8461 74.6363 86.1515C74.9838 91.9037 77.8645 96.6073 80.6037 99.8342H31.2755Z" fill="#EA8C00"/>
<path d="M112.412 10.9858C111.972 10.0592 111.038 9.46835 110.012 9.46835H3.06035C2.03557 9.46835 1.10225 10.0575 0.661297 10.9822C0.220341 11.9068 0.350191 13.003 0.995435 13.7988L46.3037 69.7003C46.8081 70.3232 47.5668 70.6847 48.3683 70.6847H64.4697C65.2688 70.6847 66.0255 70.3249 66.5299 69.7053L112.072 13.8045C112.72 13.0093 112.853 11.9125 112.412 10.9858ZM63.2075 65.3699H49.6357L8.63521 14.7839H104.419L63.2075 65.3699Z" fill="#EA8C00"/>
<path d="M83.1246 46.9302C82.6844 46.0036 81.7504 45.4137 80.7246 45.4137H32.1965C31.1717 45.4137 30.2384 46.0029 29.7974 46.9275C29.3564 47.8525 29.4863 48.9484 30.1315 49.7442L46.3077 69.703C46.8121 70.3259 47.5708 70.6874 48.3723 70.6874H64.4683C65.2678 70.6874 66.0242 70.3275 66.5289 69.708L82.7848 49.7492C83.4327 48.9547 83.5653 47.8568 83.1246 46.9302ZM63.2055 65.3726H49.6394L37.771 50.7289H75.1324L63.2055 65.3726Z" fill="#EA8C00"/>
<path d="M126.728 108.709L106.359 92.6934C100.193 87.8453 92.4771 85.1748 84.6334 85.1748H79.1393V90.49H84.6334C91.2911 90.49 97.84 92.7565 103.073 96.872L123.469 112.909C125.682 114.603 127.003 117.28 127.003 120.067V156.576C127.003 161.548 122.958 165.593 117.986 165.593H0V170.908H117.986C125.889 170.908 132.318 164.478 132.318 156.576V120.067C132.319 115.637 130.218 111.383 126.728 108.709Z" fill="#EA8C00"/>
<path d="M64.4997 9.46869H47.7974C46.33 9.46869 45.14 10.658 45.14 12.1261V35.8336C45.14 37.3016 46.33 38.491 47.7974 38.491H64.4997C65.9674 38.491 67.1574 37.3016 67.1574 35.8336V12.1261C67.1574 10.658 65.9674 9.46869 64.4997 9.46869ZM61.8422 33.1758H50.4552V14.7839H61.8422V33.1758Z" fill="#EA8C00"/>
<path d="M83.6737 153.844C83.172 153.171 82.3822 152.775 81.5434 152.775H33.3303C32.4915 152.775 31.7017 153.171 31.2 153.844C30.6986 154.516 30.5437 155.386 30.7831 156.19L34.5921 169.007C34.9269 170.135 35.9631 170.908 37.1394 170.908H77.734C78.91 170.908 79.9464 170.135 80.2812 169.007L84.0903 156.19C84.33 155.386 84.1751 154.516 83.6737 153.844ZM75.7515 165.593H39.1222L36.8924 158.09H77.981L75.7515 165.593Z" fill="#EA8C00"/>
<path d="M99.6359 10.5993L92.9865 1.13059C92.4892 0.422262 91.6777 0 90.8118 0H21.5841C20.7182 0 19.9068 0.422262 19.4091 1.13059L12.76 10.5993C12.1899 11.4108 12.1194 12.4713 12.5768 13.3522C13.0341 14.2321 13.9433 14.7839 14.9351 14.7839H97.4612C98.4529 14.7839 99.3622 14.2317 99.8195 13.3522C100.276 12.4713 100.206 11.4108 99.6359 10.5993ZM20.0486 9.46869L22.9654 5.31517H89.4305L92.3473 9.46869H20.0486Z" fill="#EA8C00"/>
<path d="M59.765 99.8332H52.1142C50.6465 99.8332 49.4568 101.023 49.4568 102.491V133.307C49.4568 134.775 50.6465 135.964 52.1142 135.964H59.765C61.2327 135.964 62.4227 134.775 62.4227 133.307V102.491C62.4227 101.023 61.2327 99.8332 59.765 99.8332ZM57.1076 130.649H54.7716V105.148H57.1076V130.649Z" fill="#EA8C00"/>
</svg>
